<?xml version="1.0" encoding="UTF-8" standalone="no"?>
<!-- Created with Inkscape (http://www.inkscape.org/) -->

<svg
   xmlns:dc="http://purl.org/dc/elements/1.1/"
   xmlns:cc="http://creativecommons.org/ns#"
   xmlns:rdf="http://www.w3.org/1999/02/22-rdf-syntax-ns#"
   xmlns:svg="http://www.w3.org/2000/svg"
   xmlns="http://www.w3.org/2000/svg"
   xmlns:sodipodi="http://sodipodi.sourceforge.net/DTD/sodipodi-0.dtd"
   xmlns:inkscape="http://www.inkscape.org/namespaces/inkscape"
   width="210mm"
   height="297mm"
   viewBox="0 0 210 297"
   version="1.1"
   id="svg6384"
   inkscape:version="0.92.5 (2060ec1f9f, 2020-04-08)"
   sodipodi:docname="logo.svg">
  <defs
     id="defs6378" />
  <sodipodi:namedview
     id="base"
     pagecolor="#ffffff"
     bordercolor="#666666"
     borderopacity="1.0"
     inkscape:pageopacity="0.0"
     inkscape:pageshadow="2"
     inkscape:zoom="1.979899"
     inkscape:cx="353.56184"
     inkscape:cy="549.45156"
     inkscape:document-units="mm"
     inkscape:current-layer="layer1"
     showgrid="false"
     inkscape:window-width="1920"
     inkscape:window-height="1017"
     inkscape:window-x="-8"
     inkscape:window-y="-8"
     inkscape:window-maximized="1" />
  <metadata
     id="metadata6381">
    <rdf:RDF>
      <cc:Work
         rdf:about="">
        <dc:format>image/svg+xml</dc:format>
        <dc:type
           rdf:resource="http://purl.org/dc/dcmitype/StillImage" />
        <dc:title></dc:title>
      </cc:Work>
    </rdf:RDF>
  </metadata>
  <g
     inkscape:label="Calque 1"
     inkscape:groupmode="layer"
     id="layer1">
    <g
       id="g6316"
       transform="translate(2.1761802,-50.529666)">
      <path
         id="rect4617"
         transform="scale(0.26458333)"
         d="m 252.16797,647.06055 c -0.35447,-0.016 -0.71929,0.0673 -1.08008,0.2539 -1.57769,0.81585 -1.80312,2.68513 -0.46094,3.81446 1.01371,0.85319 2.10404,0.80608 3.04102,-0.13086 0.93695,-0.93699 0.98372,-2.02731 0.13086,-3.04102 -0.47651,-0.56624 -1.04007,-0.86984 -1.63086,-0.89648 z m 6.92578,4.19531 c -0.99854,-6.8e-4 -1.26446,0.11449 -2.14258,0.93359 -0.96805,0.90297 -1.00195,0.9863 -1.00195,2.39844 0,1.41215 0.034,1.49547 1.00195,2.39844 0.87812,0.81887 1.14404,0.93435 2.14258,0.93359 0.71052,0 1.4293,-0.17533 1.9043,-0.46484 0.93107,-0.56772 1.56445,-1.72891 1.56445,-2.86719 0,-1.9344 -1.45461,-3.33044 -3.46875,-3.33203 z m -6.68945,8.83984 c -1.61378,-0.0322 -3.24061,1.12097 -3.24219,3.22461 -9.6e-4,1.15196 0.82954,2.32473 2.01172,2.83985 0.96952,0.42232 1.26154,0.40464 2.46289,-0.14063 0.81166,-0.36835 1.12424,-0.69337 1.51562,-1.57812 0.42104,-0.95158 0.45327,-1.24589 0.22461,-2.00977 -0.47001,-1.5688 -1.71749,-2.31086 -2.97265,-2.33594 z m -20.37305,0.98242 c -0.3085,-0.0352 -0.61196,0.14803 -0.875,0.54493 -0.27538,0.41525 -0.2684,0.56666 0.0449,1.01367 0.43346,0.61867 0.87816,0.6666 1.39453,0.15039 0.47816,-0.47826 0.47407,-0.92197 -0.0117,-1.4082 -0.18032,-0.18029 -0.36763,-0.27965 -0.55273,-0.30079 z m 6.98633,3.61133 c -0.76057,9.3e-4 -1.5234,0.36341 -2.01758,1.17383 -0.59932,0.98296 -0.60742,1.86544 -0.0371,2.68555 h 4.26953 c 0.19146,-0.35951 0.30226,-0.77166 0.30469,-1.24805 0.009,-1.60878 -1.25191,-2.61287 -2.51953,-2.61133 z m 2.21484,3.85938 c -0.22535,0.42314 -0.56842,0.77001 -1.04492,1.01367 -0.99542,0.50914 -1.97032,0.32251 -2.83594,-0.54297 v -0.002 c -0.15414,-0.15414 -0.27842,-0.31022 -0.38867,-0.46875 h -8.89648 v 16.70312 c 0.46232,-0.378 1.01614,-0.66015 1.45117,-0.66015 0.71237,0 1.77673,0.71943 2.16015,1.46093 0.52428,1.01379 0.27429,2.16162 -0.63867,2.92969 -0.46153,0.38865 -1.01386,0.60938 -1.52148,0.60938 -0.55739,0 -1.05029,-0.21607 -1.45117,-0.54297 v 34.80469 c 0.14799,-0.32386 0.36979,-0.63937 0.66601,-0.93555 0.58483,-0.58488 0.89504,-0.70313 1.85547,-0.70313 0.96444,0 1.27275,0.11836 1.86914,0.71485 0.39247,0.39246 0.7817,1.02453 0.86524,1.40429 0.19237,0.87629 -0.37106,2.25645 -1.10743,2.7168 -1.26095,0.7883 -2.50907,0.67481 -3.5,-0.3164 -0.28756,-0.2877 -0.50331,-0.59255 -0.64843,-0.90821 v 8.28906 c 0.6976,-1.05773 1.97474,-1.71596 3.52539,-1.17578 2.69316,0.93823 2.81025,4.74942 0.17773,5.80274 v -0.002 c -1.18735,0.47536 -1.31894,0.47279 -2.49023,-0.0664 -0.536,-0.24677 -0.92588,-0.58624 -1.21289,-0.97071 V 761.246 c 0.33776,0.36074 0.60099,0.83524 0.73242,1.4336 0.15551,0.70759 -0.1829,1.66396 -0.73242,2.28515 v 6.05274 c 0.72527,-0.44184 1.66354,-0.55374 2.66992,-0.0762 1.96843,0.93407 2.32248,3.30816 0.71289,4.7832 v 0.002 c -1.01631,0.93135 -2.34141,1.06524 -3.38281,0.39063 v 16.30859 h 8.5664 c 0.11972,-0.26407 0.26993,-0.5222 0.48828,-0.75781 1.15664,-1.24804 3.17573,-1.10316 4.11524,0.29492 0.10146,0.15096 0.17882,0.30664 0.25,0.46289 h 15.13672 c -0.039,-0.76078 0.29078,-1.45834 1.00781,-2.08789 1.19382,-1.04806 2.4157,-1.02091 3.61914,0.082 0.78288,0.71758 0.89062,0.94826 0.89062,1.92383 0,0.0327 -0.004,0.0509 -0.004,0.082 h 8.83789 c 1.22236,-0.95055 2.90709,-1.15517 4.37891,-0.39648 0.22671,0.11685 0.43758,0.25026 0.63476,0.39648 h 3.7168 c -1.1606,-0.62755 -1.8125,-2.19926 -0.65039,-3.36133 0.85196,-0.85198 1.6626,-0.99852 2.57226,-0.46875 1.47378,0.85814 1.70382,2.65038 0.46485,3.625 -0.10474,0.0824 -0.21258,0.14502 -0.32032,0.20508 h 12.66797 c 0.16365,-0.67161 0.9513,-1.39258 1.59961,-1.39258 0.58232,0 1.43452,0.76167 1.64844,1.39258 h 13.9668 c 0.0706,-0.17793 0.17807,-0.33564 0.35742,-0.43164 0.85558,-0.4579 1.65002,-0.13699 1.96484,0.43164 h 26.51953 c -0.23252,-0.60941 -0.1471,-1.34715 0.49414,-1.85156 0.82396,-0.64823 1.40902,-0.62242 2.12305,0.0918 0.53525,0.5352 0.68723,1.18911 0.44336,1.75976 h 8.38477 V 668.54883 h -90.43555 c -0.0379,0.31647 -0.23268,0.61086 -0.61524,1.01953 -0.75115,0.80239 -1.39231,1.0256 -2.11132,0.73828 -0.56828,-0.22705 -1.42882,-1.24864 -1.50586,-1.75781 z m 16.04102,0 h 4.23242 c 0.0359,-0.29992 -0.0688,-0.62008 -0.30664,-1.08008 -0.48716,-0.94307 -1.57816,-1.36207 -2.52344,-0.9707 -0.70298,0.29113 -1.41797,1.28804 -1.41797,1.97656 0,0.0215 0.012,0.0503 0.0156,0.0742 z m 86.2832,123.87695 h -3.06055 c 0.28548,0.74819 1.05959,1.30005 1.99024,0.94922 0.31674,-0.11913 0.71652,-0.40087 0.88672,-0.625 0.0789,-0.10384 0.13579,-0.21237 0.18359,-0.32422 z m -29.58008,0 h -2.32226 c -0.29035,0.73189 0.25772,1.94141 1.12304,1.94141 0.2416,0 0.65414,-0.21502 0.91602,-0.47657 0.49396,-0.49398 0.51577,-1.04479 0.2832,-1.46484 z m -16.28906,0 h -3.24805 c -0.0199,0.0815 -0.0332,0.16155 -0.0332,0.24024 0,0.77049 0.87452,1.70117 1.59961,1.70117 0.31055,0 0.82699,-0.26235 1.14844,-0.58399 0.32155,-0.32141 0.58398,-0.80997 0.58398,-1.08398 0,-0.0861 -0.0185,-0.17824 -0.0508,-0.27344 z m -15.91602,0 h -2.0664 c 0.61138,0.33058 1.36309,0.3921 2.0664,0 z m -5.7832,0 h -5.01367 c -0.42641,0.3316 -0.7997,0.75006 -1.08399,1.25586 -0.57851,1.02924 -0.65529,3.00768 -0.15429,3.9707 1.07611,2.06801 3.59025,2.88346 5.63476,1.82618 0.96229,-0.49762 2.08681,-1.9107 2.26172,-2.84375 0.30934,-1.64902 -0.33045,-3.23452 -1.64453,-4.20899 z m -13.85156,0 h -5.51367 c 0.018,0.35146 0.10749,0.71523 0.28711,1.09375 0.4883,1.02875 1.32872,1.53762 2.55468,1.55274 0.69637,0.008 1.09421,-0.17346 1.78516,-0.80665 0.7566,-0.6935 0.87919,-0.94402 0.88672,-1.83984 z m -20.65039,0 h -4.85352 c -0.56788,1.25259 -0.0641,2.72048 1.34571,3.43164 1.01899,0.51217 1.25633,0.51435 2.2871,0.0254 v 0.002 c 1.3495,-0.64039 1.83149,-2.11821 1.22071,-3.45899 z m -13.41992,-16.30859 v -5.09961 c -1.53665,0.93613 -2.10954,3.36497 -0.28711,4.89844 0.0914,0.077 0.1902,0.13839 0.28711,0.20117 z m 0,-11.15235 v -3.71875 c -1.52305,-1.62659 -4.6211,-0.88249 -4.6211,1.86329 0,0.8917 0.12946,1.19401 0.8086,1.87304 0.9124,0.91249 2.03691,1.07404 3.21875,0.46289 0.21428,-0.11081 0.41474,-0.27812 0.59375,-0.48047 z m 0,-27.26172 v -3.58789 c -0.69919,1.06014 -0.80051,2.51559 0,3.58789 z m 0,-11.87695 v -1.97265 c -0.29548,0.64658 -0.29576,1.32936 0,1.97265 z m 0,-36.77734 v -3.79688 c -0.29475,0.24099 -0.55969,0.5121 -0.70899,0.80078 -0.54476,1.05345 -0.1453,2.29947 0.70899,2.9961 z m 18.07031,-19.72071 c 0.8297,-0.0366 1.68788,0.24258 2.38281,0.9375 1.34314,1.34321 1.03597,3.85965 -0.5957,4.87891 -1.80939,1.13027 -4.38806,0.0439 -4.84571,-2.03711 -0.45853,-2.08775 1.23326,-3.69886 3.0586,-3.7793 z m 7.1289,5.04688 c 0.48594,-0.0127 0.99198,0.11268 1.54493,0.375 1.13,0.53639 1.73124,1.58661 1.73242,3.02344 7.9e-4,1.02947 -0.10259,1.26284 -0.92383,2.08398 -0.82108,0.82107 -1.0545,0.92455 -2.08398,0.92383 -3.50653,-0.003 -4.68397,-4.13215 -1.69727,-5.95313 0.47419,-0.28915 0.9418,-0.44046 1.42773,-0.45312 z m -19.61132,0.0586 c 1.04468,-0.0631 2.1365,0.59062 2.63281,1.90039 0.33573,0.88596 0.12478,1.63565 -0.67969,2.40625 -2.04825,1.96234 -5.21665,-0.28077 -4,-2.83203 0.44963,-0.94286 1.23434,-1.42548 2.04688,-1.47461 z m 7.17578,5.0293 c 0.30609,-0.0286 0.61938,10e-4 0.92773,0.0937 1.3838,0.4148 2.04688,1.27763 2.04688,2.66797 0,0.98687 -0.11339,1.28135 -0.73633,1.9043 -1.53694,1.53694 -3.87518,0.9709 -4.60156,-1.11329 -0.30535,-0.87598 -0.29427,-1.04968 0.11914,-1.89648 0.47108,-0.96505 1.32587,-1.57031 2.24414,-1.65625 z m -18.78125,1.47266 c -0.0864,0.008 -0.17305,0.0319 -0.25586,0.0762 -0.57196,0.30603 -0.72337,0.72853 -0.45117,1.25781 0.29126,0.56595 1.30919,0.53366 1.62304,-0.0527 0.31279,-0.58437 -0.31107,-1.33892 -0.91601,-1.28125 z m 26.4375,3.23047 c 2.32374,0.0689 4.19497,2.81963 2.69726,5.10546 -0.20953,0.32013 -0.7221,0.78973 -1.14062,1.04493 -2.14798,1.30975 -4.92969,-0.30317 -4.92969,-2.85938 0,-1.29343 0.5525,-2.21017 1.72852,-2.87109 0.54867,-0.30838 1.10828,-0.43582 1.64453,-0.41992 z M 237.03125,689.25 c 0.22387,0.005 0.45038,0.0375 0.67383,0.0977 2.65327,0.71448 3.23583,4.34443 0.93164,5.80468 -2.15418,1.36521 -5.17937,-0.49077 -4.8711,-2.98828 0.20845,-1.6883 1.69851,-2.94823 3.26563,-2.91406 z m 18.71289,1.13672 c 0.86104,0.009 1.71485,0.48406 2.13281,1.48437 0.29382,0.70511 0.29331,0.9273 0.004,1.61914 -0.18452,0.44153 -0.58377,0.97779 -0.88867,1.19141 -0.94975,0.66524 -2.05094,0.49949 -3.00196,-0.45117 -0.73878,-0.7389 -0.82212,-0.9433 -0.69921,-1.70117 0.22646,-1.39571 1.34607,-2.15411 2.45312,-2.14258 z m -11.34375,4.20703 c 0.96454,0 1.31889,0.12661 1.98633,0.71289 0.44681,0.39247 0.94347,1.0325 1.10547,1.42383 0.56638,1.36739 -0.20321,3.1789 -1.67383,3.93945 -1.77913,0.92001 -3.99631,-0.1016 -4.53125,-2.08789 -0.3312,-1.23012 0.0418,-2.3245 1.11133,-3.26367 0.68287,-0.59955 1.03274,-0.72461 2.00195,-0.72461 z m -18.41016,2.18164 c -0.44811,0.064 -0.8789,0.38105 -0.8789,0.89453 0,0.87591 1.10309,1.29351 1.65625,0.62696 0.15715,-0.18921 0.24955,-0.5906 0.20703,-0.89258 -0.0713,-0.5033 -0.53626,-0.69288 -0.98438,-0.62891 z m 7.70704,3.27149 c 0.67964,-0.0137 1.38487,0.2192 1.99609,0.75585 1.36406,1.19774 1.43388,2.88933 0.17969,4.29297 -0.50776,0.56829 -0.89924,0.75801 -1.72071,0.83008 -1.30648,0.11452 -1.86916,-0.11488 -2.68945,-1.08984 -0.45766,-0.54399 -0.63672,-1.02144 -0.63672,-1.71094 0,-1.8223 1.37588,-3.04799 2.8711,-3.07812 z m 18.17968,1.21289 c 0.3261,0 0.88301,0.25121 1.23828,0.55664 0.76675,0.65956 0.84913,1.89651 0.16993,2.5625 -1.2087,1.18522 -3.14243,0.40042 -3.16211,-1.28321 -0.008,-0.83206 0.94882,-1.83593 1.7539,-1.83593 z m -10.34375,4.18359 c 1.35775,0.0437 2.67989,1.0941 2.98438,2.48047 0.19238,0.87598 -0.43862,2.27494 -1.3086,2.90234 -1.97169,1.42201 -4.52539,0.043 -4.52539,-2.44726 0,-0.99077 0.11387,-1.26238 0.81055,-1.95899 0.44491,-0.44477 1.09985,-0.8633 1.45703,-0.93164 0.19255,-0.0368 0.38807,-0.0512 0.58203,-0.0449 z m -17.91211,0.86133 c -0.4712,0.0253 -0.95734,0.22491 -1.38476,0.65234 -0.93583,0.93581 -0.93583,1.95872 0,2.89453 0.72736,0.72707 1.593,0.88945 2.41211,0.45117 0.25199,-0.135 0.62586,-0.57222 0.83203,-0.9707 0.8331,-1.61096 -0.44578,-3.1032 -1.85938,-3.02734 z m 7.92969,4.52539 c 0.46807,-0.0233 0.95801,0.0742 1.44141,0.32422 2.21348,1.14459 2.15522,4.33648 -0.0977,5.35937 -0.54793,0.24869 -1.10331,0.45313 -1.23437,0.45313 -0.65444,0 -2.19251,-0.96199 -2.56055,-1.60157 -1.18801,-2.06423 0.42289,-4.43414 2.45117,-4.53515 z m 17.74414,0.51172 c 0.40594,-0.0365 0.83616,0.0387 1.26367,0.25976 0.7882,0.40774 1.46094,1.45789 1.46094,2.2793 0,0.80674 -0.66936,1.86867 -1.42187,2.25781 -1.17205,0.60609 -2.219,0.3598 -3.07032,-0.72265 -1.30043,-1.65321 0.008,-3.91599 1.76758,-4.07422 z m -9.58008,5.53906 c 0.31795,-0.013 0.64708,0.0557 1,0.20312 1.66587,0.69604 2.09608,2.70861 0.84571,3.95899 -1.22341,1.22339 -3.12656,0.8574 -3.96485,-0.76367 -0.47418,-0.91703 -0.27101,-1.86605 0.56446,-2.64063 0.52593,-0.48768 1.02477,-0.73611 1.55468,-0.75781 z m -17.58398,0.36523 c -1.02919,0.0196 -2.01953,0.78528 -2.01953,2.12305 0,0.71135 0.15249,1.02776 0.73242,1.51563 0.80404,0.67691 1.31817,0.75668 2.2207,0.3457 0.89222,-0.40649 1.44976,-1.73155 1.0918,-2.5957 -0.40086,-0.96776 -1.22491,-1.4039 -2.02539,-1.38868 z m 26.15234,5.04297 c 0.12963,-10e-6 0.25767,0.014 0.38086,0.041 0.81745,0.17953 1.83649,1.20901 2.04883,2.06836 0.20901,0.8457 -0.41851,2.13388 -1.29297,2.65039 -0.89591,0.52932 -1.62869,0.51118 -2.5664,-0.0605 -1.07668,-0.65646 -1.46788,-2.00891 -0.91602,-3.17187 0.4224,-0.89011 1.43828,-1.52729 2.3457,-1.52735 z m 8.28907,4.26172 c 0.20586,-0.0115 0.41942,-0.007 0.63671,0.0176 3.55257,0.40067 4.67369,5.20006 1.64454,7.03906 -1.59491,0.96832 -3.32249,0.75354 -4.72266,-0.58789 -2.35727,-2.25836 -0.64656,-6.29574 2.44141,-6.46875 z m -17.19141,1.67774 c 0.7241,0.0618 1.43341,0.50041 1.80859,1.29101 0.32882,0.69283 0.34455,0.94861 0.10157,1.53516 -0.16033,0.38702 -0.51404,0.86145 -0.78711,1.05273 -0.27311,0.19125 -0.8919,0.34766 -1.375,0.34766 -0.68847,0 -1.01093,-0.15778 -1.49414,-0.73242 -0.73446,-0.87285 -0.77543,-1.5073 -0.15821,-2.51954 0.43969,-0.72109 1.1802,-1.03641 1.9043,-0.9746 z m 8.87695,4.46679 c 1.02906,0.001 2.21246,0.74061 2.70313,1.68946 0.82155,1.58872 0.24794,3.45749 -1.31836,4.29492 v -0.002 c -1.01784,0.54456 -1.78137,0.55505 -2.83203,0.0391 -2.9106,-1.43384 -1.80716,-6.02455 1.44726,-6.02149 z m 9.28516,5.73047 c 0.27087,-0.009 0.54753,0.0189 0.82226,0.0879 0.86682,0.21732 1.94306,1.42882 2.12305,2.38867 0.19521,1.04024 -0.45964,2.42062 -1.42578,3.00977 -2.82473,1.72252 -5.87609,-1.9278 -3.69141,-4.41602 0.58788,-0.66954 1.35925,-1.04251 2.17188,-1.07031 z m -17.86133,0.6836 c 1.55355,-0.11825 3.05025,1.38247 2.32617,3.13085 -0.16592,0.40063 -0.5263,0.87029 -0.80078,1.04297 -1.19927,0.75413 -2.26183,0.62271 -3.10937,-0.38476 -0.84921,-1.00906 -0.81488,-2.17337 0.0918,-3.08008 0.45021,-0.45021 0.97434,-0.66957 1.49219,-0.70898 z m 27.74414,4.77539 c 1.41016,0.002 2.92969,1.57371 2.92969,3.03125 0,0.77688 -0.8569,2.04201 -1.68164,2.48437 v 0.002 c -0.99582,0.53416 -1.53688,0.54106 -2.57617,0.0274 -0.96137,-0.47369 -1.69336,-1.58579 -1.69336,-2.57031 0,-1.49742 1.5026,-2.97684 3.02148,-2.97461 z m -17.99414,0.70703 c 0.51488,-0.0211 1.02922,0.17106 1.47266,0.58203 1.14516,1.06137 1.04453,2.75746 -0.21094,3.58008 -2.22259,1.45629 -4.62407,-1.57512 -2.74024,-3.45899 0.44753,-0.44746 0.96364,-0.68201 1.47852,-0.70312 z m -17.87891,0.01 c 0.55775,-0.0304 1.14913,0.16865 1.67383,0.69336 1.00342,1.00354 1.01573,2.13677 0.0352,3.17383 v 0.002 c -0.87778,0.92727 -2.32835,0.92091 -3.22461,-0.0156 -1.54026,-1.60767 -0.1576,-3.76219 1.51562,-3.85352 z m 9.91211,4.9961 c 2.83367,0 3.8659,3.52787 1.46094,4.99414 v 0.004 c -0.98983,0.60242 -1.76963,0.60803 -2.73828,0.0156 -0.96432,-0.58798 -1.26563,-1.16032 -1.26562,-2.40235 0,-1.38425 1.19508,-2.61132 2.54296,-2.61132 z m -17.875,0.0254 c -0.33707,-0.005 -0.65728,0.10526 -1.0957,0.33203 -0.96189,0.49738 -1.43164,1.26223 -1.43164,2.33203 0,1.16564 0.31582,1.747 1.26562,2.32617 0.91474,0.55778 1.39893,0.57688 2.4004,0.10156 v 0.002 c 2.02832,-0.96246 2.06466,-3.77552 0.0605,-4.72657 -0.50685,-0.24077 -0.86214,-0.36218 -1.19922,-0.36718 z m 54.26563,0.45312 c 0.83534,0 2.02539,1.18813 2.02539,2.02344 0,0.38101 -0.27771,0.90856 -0.69727,1.32812 -0.38282,0.38264 -0.89151,0.69007 -1.13086,0.68165 -1.17947,-0.0435 -2.2207,-1.01626 -2.2207,-2.08008 0,-0.76536 1.23012,-1.95313 2.02344,-1.95313 z m -25.69141,4.30078 c 1.64747,0.0688 2.94762,1.40157 2.94922,3.38282 7.6e-4,0.95467 -0.12481,1.27081 -0.79297,2 -0.69038,0.75337 -0.96315,0.88019 -2.08398,0.96289 -1.01211,0.0748 -1.4412,-0.0108 -2.00195,-0.38868 -0.85824,-0.58212 -1.54883,-1.787 -1.54883,-2.70312 0,-1.06998 0.83535,-2.44498 1.75,-2.87891 0.59076,-0.28034 1.17936,-0.39794 1.72851,-0.375 z m 18.10156,0.28516 c 1.86941,-0.0689 3.55582,1.94316 2.63086,3.88281 -0.20866,0.43718 -0.62395,0.95245 -0.92382,1.14649 -1.22492,0.79249 -2.48394,0.67433 -3.48828,-0.33008 -1.30826,-1.30832 -1.08183,-3.30826 0.48632,-4.29102 0.42101,-0.26383 0.86352,-0.39229 1.29492,-0.4082 z m -36.46093,0.60547 c 1.34574,0 2.49804,1.13098 2.49804,2.45117 0,0.65998 -0.63379,1.82443 -1.13281,2.08008 -2.41798,1.23885 -4.73,-0.93538 -3.50781,-3.29883 0.43744,-0.84593 1.11135,-1.23242 2.14258,-1.23242 z m 48.27343,3.18359 c 1.70098,-0.016 3.26872,1.16012 3.78126,3.08203 0.26917,1.0094 0.24649,1.19344 -0.28321,2.26172 -0.32186,0.64929 -0.93302,1.39992 -1.38476,1.69922 -1.11445,0.73826 -2.99145,0.73826 -4.07618,0 -1.34003,-0.912 -1.7832,-1.71596 -1.7832,-3.23242 0,-1.62217 0.62663,-2.66226 2.03516,-3.38086 0.56221,-0.28682 1.14394,-0.42435 1.71093,-0.42969 z m -37.75585,2.64063 c 0.14259,-0.012 0.2857,-0.002 0.42578,0.0332 1.49419,0.37493 2.02405,2.07951 0.97265,3.13086 -1.06739,1.06745 -2.74458,0.56458 -3.12109,-0.93555 -0.24922,-0.99298 0.72449,-2.14474 1.72266,-2.22851 z m 11.36718,2.80859 c 1.5371,0.006 3.04344,0.91961 3.76758,2.55664 0.88124,1.99223 0.002,4.28098 -2.01953,5.25977 -1.21896,0.59002 -2.12084,0.62618 -3.26758,0.1289 -1.08832,-0.47206 -1.62844,-0.98224 -2.17578,-2.05468 -0.86141,-1.68779 -0.45748,-3.55337 1.05664,-4.88282 0.78331,-0.68775 1.71641,-1.01154 2.63867,-1.00781 z m 19.11133,1.41602 c 2.45533,0 3.21385,3.03751 1.03906,4.16211 v 0.002 c -0.85468,0.44043 -1.13663,0.43895 -1.96679,-0.0117 -1.95083,-1.05865 -1.25957,-4.15234 0.92773,-4.15234 z m 20.09961,0.0391 c 0.3704,-0.0179 0.74984,0.10281 1.01563,0.39648 0.51223,0.56606 0.49939,1.06179 -0.041,1.55078 -0.89906,0.8137 -2.18359,0.29451 -2.18359,-0.88281 0,-0.62263 0.59165,-1.03458 1.20898,-1.06445 z m -57.93555,1.15039 c 1.5644,0 2.31498,2.11792 1.0918,3.08008 -0.34503,0.27137 -0.88544,0.49219 -1.20117,0.49218 -0.75718,0 -1.74219,-1.00925 -1.74219,-1.78515 0,-0.83002 0.99049,-1.78711 1.85156,-1.78711 z m 30.29102,2.41211 c 0.19112,-0.003 0.40878,0.009 0.66797,0.0293 2.21239,0.17763 3.50195,1.55806 3.50195,3.75 0,1.56204 -0.43108,2.35515 -1.7832,3.27539 -1.63687,1.11401 -4.19534,0.43906 -5.21485,-1.375 -1.03114,-1.8347 -0.46679,-3.91496 1.40821,-5.18946 0.51082,-0.3471 0.84657,-0.4805 1.41992,-0.49023 z m 20.41602,1.1582 c 1.85464,0 2.51758,2.31495 0.87695,3.0625 v 0.004 c -0.6964,0.31672 -0.76933,0.31596 -1.43945,-0.0117 -1.42101,-0.68806 -0.98488,-3.05469 0.5625,-3.05469 z m 14.54882,3.57422 c 0.82713,0 1.23438,0.39268 1.23438,1.19141 0,0.34053 -0.12992,0.74703 -0.28711,0.90429 -0.5046,0.50476 -1.57302,0.33802 -1.99805,-0.31054 -0.36136,-0.55144 -0.36136,-0.63799 0,-1.18946 0.26098,-0.39847 0.60821,-0.5957 1.05078,-0.5957 z m -21.60742,1.64649 c 0.47081,-0.0182 0.96479,0.16585 1.33789,0.5996 0.67591,0.78599 0.68406,1.08847 0.0547,1.88868 -0.9527,1.21118 -2.90039,0.58303 -2.90039,-0.93555 0,-0.93144 0.72314,-1.52247 1.50781,-1.55273 z m -39.76758,1.26953 c 0.5293,-0.075 1.09275,0.0771 1.54102,0.52539 0.96356,0.96359 0.77176,2.51716 -0.38477,3.11523 -0.80083,0.41428 -1.13349,0.4258 -1.76953,0.0605 -0.73184,-0.41972 -1.05664,-0.95306 -1.05664,-1.73633 0,-1.08215 0.78776,-1.83979 1.66992,-1.96484 z M 295,778.41211 c 0.16112,0 0.57681,0.22307 0.92188,0.49414 0.84307,0.66319 0.84307,1.68259 0,2.3457 -0.34504,0.27137 -0.76073,0.49414 -0.92188,0.49414 -0.63236,0 -1.54687,-0.98494 -1.54688,-1.66601 0,-0.681 0.91452,-1.66797 1.54688,-1.66797 z m 15.65625,1.33203 c 1.51683,-0.13245 2.92584,1.91104 1.60742,3.31445 -0.95945,1.02127 -2.52695,0.73073 -3.21289,-0.5957 -0.41035,-0.79362 -0.22355,-1.52909 0.57031,-2.24414 0.32945,-0.29678 0.68512,-0.44404 1.03516,-0.47461 z m -37.01172,0.14063 c 0.75765,-0.0256 1.47026,0.42743 1.92188,1.31054 0.43368,0.84794 0.30901,1.49762 -0.42969,2.23633 -1.40942,1.40942 -3.5918,0.55069 -3.5918,-1.41406 0,-0.76037 0.14154,-1.06339 0.73242,-1.56055 0.44021,-0.37042 0.9126,-0.55691 1.36719,-0.57226 z m -20.58203,0.48828 c 0.21874,-0.0195 0.44732,-0.0139 0.68164,0.0176 1.09153,0.14665 1.78352,0.69615 2.24024,1.7754 0.48284,1.14088 -0.0798,2.87525 -1.0625,3.27539 -2.2078,0.89899 -3.9836,0.0788 -4.25782,-1.9668 -0.22025,-1.64253 0.86727,-2.96502 2.39844,-3.10156 z m -19.26953,0.30468 c 0.32696,-0.0205 0.64669,0.0121 0.93555,0.10743 2.35568,0.77748 2.9504,3.7725 1.06445,5.35937 -0.85601,0.7203 -2.57648,0.81678 -3.56836,0.20117 -1.37869,-0.85561 -1.81579,-2.83944 -0.94141,-4.27343 0.48138,-0.7894 1.52888,-1.333 2.50977,-1.39454 z m 54.08789,2.73438 c 0.83602,0 1.76172,1.00038 1.76172,1.9043 0,0.4639 -0.21553,0.95188 -0.58399,1.32031 -0.73507,0.73636 -1.58364,0.74662 -2.41797,0.0273 -0.46322,-0.39847 -0.64843,-0.78333 -0.64843,-1.34765 0,-0.93483 0.96145,-1.9043 1.88867,-1.9043 z m -21.26172,0.002 c 3.51977,0 5.02473,4.63892 2.20313,6.79102 -1.46469,1.11711 -3.54178,1.03278 -4.85938,-0.19727 -2.58226,-2.41096 -0.89742,-6.59375 2.65625,-6.59375 z m 53.97461,1.08203 c 1.06357,0 1.81526,0.55843 2.30469,1.71485 0.27817,0.65918 0.27754,0.89272 -0.008,1.57617 -0.18451,0.44152 -0.58572,0.97794 -0.89062,1.19141 -1.30545,0.91434 -3.25137,0.20846 -3.77148,-1.36719 -0.49604,-1.50304 0.72791,-3.11524 2.36523,-3.11524 z m -74.49609,1.04297 c 1.17101,-0.0297 2.3767,0.67529 2.82226,2.02539 0.33067,1.00188 -0.0984,2.18477 -1.07031,2.94922 v 0.002 c -0.89533,0.70526 -2.40375,0.69686 -3.25,-0.0215 -1.18198,-0.99912 -1.46009,-2.22718 -0.79688,-3.50976 0.49376,-0.95481 1.38413,-1.42223 2.29493,-1.44532 z m 57.26562,0.28516 c 0.34604,-0.0124 0.71309,0.11739 1.04297,0.44726 0.59431,0.59434 0.6124,1.46914 0.041,1.98633 -0.5751,0.52059 -1.53665,0.50144 -2.02735,-0.043 -0.93803,-1.03828 -0.0944,-2.35345 0.94336,-2.39062 z m 27.38477,2.61523 c 0.51945,-0.073 1.09371,0.0662 1.60547,0.46875 0.83038,0.65318 0.87599,2.0504 0.0918,2.76953 -0.97664,0.89409 -1.75343,0.89403 -2.73828,-0.002 -0.36869,-0.33562 -0.53515,-0.75889 -0.53515,-1.35742 0,-1.04913 0.71041,-1.75723 1.57617,-1.87891 z M 252.5,795.34961 c -0.59219,-0.0425 -1.19973,0.17624 -1.68945,0.66601 -1.10844,1.10846 -0.90344,2.71702 0.4414,3.4668 0.85669,0.47739 1.9438,0.27648 2.61328,-0.48437 0.59657,-0.67786 0.71681,-2.11253 0.23047,-2.7461 -0.42648,-0.55536 -1.00351,-0.85987 -1.5957,-0.90234 z m 70.58789,0.44727 c -0.39605,-10e-6 -1.53711,1.0276 -1.53711,1.38476 0,0.44878 1.00634,1.47266 1.44727,1.47266 0.25256,0 0.6737,-0.21502 0.93554,-0.47657 0.26192,-0.26184 0.47461,-0.69158 0.47461,-0.95312 0,-0.56459 -0.79849,-1.42773 -1.32031,-1.42773 z m -34.13867,0.041 c -0.13684,-0.001 -0.28966,0.0141 -0.4707,0.043 -1.9089,0.30368 -2.63407,2.61482 -1.19922,3.82226 0.97298,0.81884 1.91554,0.7979 2.88281,-0.0664 1.08966,-0.97342 1.07996,-2.19227 -0.0273,-3.18164 -0.50174,-0.44972 -0.77504,-0.61279 -1.18555,-0.61719 z m 16.33203,0.23242 c -0.36929,-5.8e-4 -0.75603,0.11019 -1.20703,0.32422 -1.58953,0.75428 -2.06704,2.8254 -0.95703,4.14453 1.00861,1.19891 2.81419,1.36786 3.91992,0.36719 1.09005,-0.98646 1.17296,-2.9328 0.16406,-3.85156 -0.73633,-0.67066 -1.30444,-0.98341 -1.91992,-0.98438 z m -38.77734,0.69336 c -2.01124,-0.0194 -3.65114,1.24606 -4.26172,3.375 -0.43948,1.53237 0.64989,3.7775 2.20312,4.54297 1.18226,0.58288 3.04669,0.5175 4.02344,-0.14062 0.87697,-0.59097 1.82027,-1.85087 2.03906,-2.72266 0.0766,-0.3041 0.0649,-1.04336 -0.0254,-1.64453 -0.20924,-1.39605 -1.77158,-3.07162 -3.0957,-3.32031 -0.3006,-0.0564 -0.59549,-0.0871 -0.88281,-0.0898 z m -34.52735,0.69922 c -0.44074,0 -1.15039,0.74708 -1.15039,1.21094 0,0.50782 0.61573,1.16992 1.08789,1.16992 0.18703,0 0.5546,-0.21502 0.81641,-0.47656 0.26192,-0.26196 0.47656,-0.58212 0.47656,-0.71289 0,-0.3292 -0.89001,-1.19141 -1.23047,-1.19141 z m 123.79297,0.34961 c -0.22473,0.004 -0.45888,0.0497 -0.69726,0.14844 -0.82481,0.34163 -1.46047,1.46614 -1.24024,2.19336 0.48004,1.58464 2.22632,2.11354 3.33008,1.00976 1.28266,-1.28265 0.18054,-3.37709 -1.39258,-3.35156 z m -21.86914,0.0371 c -1.04052,-0.063 -2.10937,0.71887 -2.10937,2.05859 0,1.57531 2.21018,2.45779 3.26562,1.30469 0.72008,-0.7869 0.85793,-1.48505 0.44922,-2.27539 -0.36619,-0.70815 -0.98116,-1.05011 -1.60547,-1.08789 z m 10.86914,1.75586 c -0.27505,0 -0.62992,0.1295 -0.78711,0.28711 -0.15719,0.15723 -0.28515,0.51 -0.28515,0.78515 0,0.275 0.12796,0.62831 0.28515,0.78516 0.15722,0.15723 0.51204,0.28711 0.78711,0.28711 0.27505,0 0.62797,-0.1295 0.78516,-0.28711 0.15719,-0.15723 0.28515,-0.51001 0.28515,-0.78516 0,-0.27507 -0.12792,-0.6283 -0.28515,-0.78515 -0.15722,-0.15723 -0.51008,-0.28711 -0.78516,-0.28711 z m -99.63476,0.85937 c -1.71622,-0.0739 -2.86055,2.08528 -1.54688,3.64649 0.79838,0.94881 2.12096,1.01745 3.11523,0.16211 0.51841,-0.44587 0.66211,-0.77634 0.66211,-1.51758 0,-1.0969 -0.39614,-1.66575 -1.46679,-2.11328 -0.26302,-0.10995 -0.5185,-0.16718 -0.76367,-0.17774 z m 36.14062,1.04493 c -0.30803,0.004 -0.61742,0.078 -0.90234,0.23046 -0.72374,0.38725 -1.07775,1.55339 -0.72852,2.39649 0.16397,0.39602 0.47156,0.82172 0.68359,0.94531 0.44525,0.26003 1.48089,0.30528 2.04102,0.0898 v 0.002 c 0.56385,-0.21627 1.14473,-1.48068 0.98047,-2.13477 -0.23416,-0.93313 -1.15011,-1.54111 -2.07422,-1.52929 z m 33.82813,0.71484 c -0.8309,0 -1.72126,1.03853 -1.51172,1.76367 0.18365,0.6361 0.98357,1.33203 1.53125,1.33203 0.23287,0 0.66224,-0.19466 0.95507,-0.43164 1.05565,-0.85478 0.39398,-2.66406 -0.9746,-2.66406 z m -17.6211,0.11328 c -0.55605,0.0253 -1.05927,0.32565 -1.55273,0.91211 -0.49755,0.59271 -0.59296,0.89915 -0.48438,1.58203 0.30147,1.89547 2.61803,2.6144 3.82031,1.18555 1.01729,-1.20892 0.69309,-2.76064 -0.71679,-3.42969 -0.38063,-0.18062 -0.73277,-0.26519 -1.06641,-0.25 z m -38.25195,2.03125 c -0.74919,0 -1.73438,1.01334 -1.73438,1.78516 0,0.72143 0.96901,1.78711 1.625,1.78711 v -0.002 c 0.25031,0 0.737,-0.22081 1.08203,-0.49218 1.16534,-0.91665 0.48231,-3.07813 -0.97265,-3.07813 z m 66.28711,1.33398 c -0.16104,0.0119 -0.32714,0.0528 -0.49414,0.12891 -0.68414,0.3117 -0.95887,0.93741 -0.75977,1.73047 0.25763,1.02656 1.78784,1.29147 2.4668,0.42773 0.79252,-1.00816 -0.0856,-2.37022 -1.21289,-2.28711 z"
         style="fill:#000000;fill-opacity:1;stroke:none;stroke-width:0.92790991;stroke-opacity:1"
         inkscape:connector-curvature="0" />
      <path
         style="fill:#da1921;fill-opacity:1;stroke:none;stroke-width:0.26713991px;stroke-linecap:butt;stroke-linejoin:miter;stroke-opacity:1"
         d="m 75.175414,178.69327 c -1.372056,0.0124 -2.670689,0.39878 -3.443079,0.88646 v -0.84577 l -3.277681,5.2e-4 v 15.95848 h 3.277681 v -5.0527 c 2.434113,1.76703 8.949186,1.98069 8.949188,-5.03027 3e-6,-4.60093 -2.886721,-5.94046 -5.506109,-5.91672 z m -0.704894,3.08045 a 2.9051467,2.9051467 0 0 1 2.905147,2.90515 2.9051467,2.9051467 0 0 1 -2.905147,2.90515 2.9051467,2.9051467 0 0 1 -2.905147,-2.90515 2.9051467,2.9051467 0 0 1 2.905147,-2.90515 z"
         id="path3786"
         inkscape:connector-curvature="0" />
      <path
         style="fill:#01baf2;fill-opacity:1;stroke:none;stroke-width:0.26573661px;stroke-linecap:butt;stroke-linejoin:miter;stroke-opacity:1"
         d="m 81.284175,178.65993 h 3.209408 v 7.06751 c 0,0 -0.05659,1.87243 1.872417,1.87243 1.935588,0 1.815917,-1.81592 1.815917,-1.81592 v -7.11465 h 3.337519 v 7.17559 c 0,0 0.245881,4.81504 -4.931304,4.81504 -5.177185,0 -5.239008,-4.83853 -5.239008,-4.83853 z"
         id="path4596"
         inkscape:connector-curvature="0"
         sodipodi:nodetypes="cccscccczcc" />
      <path
         style="fill:#fdaf17;fill-opacity:1;stroke:none;stroke-width:0.26740304px;stroke-linecap:butt;stroke-linejoin:miter;stroke-opacity:1"
         d="m 62.120481,207.72303 c 0.02549,0.007 3.233906,0 3.233906,0 v -6.8355 c 0,-0.98958 1.371945,-2.12922 2.498547,-2.14757 0.663558,0.082 1.470717,0.57857 1.470717,2.20607 v 6.74357 h 3.217188 v -8.24772 c 0,-1.96888 -1.55868,-3.8287 -4.595985,-3.7102 -1.227611,0.10986 -2.531974,1.07796 -2.531974,1.07796 v -0.82729 l -3.304934,0.0209 c 0,0 -0.01296,11.71294 0.01253,11.71977 z"
         id="path4598"
         inkscape:connector-curvature="0"
         sodipodi:nodetypes="ccsccccscccccc" />
      <path
         style="fill:#71bf45;fill-opacity:1;stroke:none;stroke-width:0.26620734;stroke-opacity:1"
         d="m 74.313692,191.72614 v 4.18809 h -1.52965 v 2.96468 h 1.52965 v 8.84723 h 3.2938 v -8.84723 h 1.67056 v -2.96468 h -1.67056 v -4.18809 z"
         id="rect4600"
         inkscape:connector-curvature="0" />
      <path
         style="fill:#ed1b24;fill-opacity:1;stroke:none;stroke-width:0.26058498;stroke-opacity:1"
         d="m 85.521252,195.72613 a 6.0000119,6.0000119 0 0 0 -6,6.00001 6.0000119,6.0000119 0 0 0 6,6 6.0000119,6.0000119 0 0 0 6.000034,-6 6.0000119,6.0000119 0 0 0 -6.000034,-6.00001 z m 0.0227,3.21678 a 2.8517168,2.8517168 0 0 1 2.851804,2.85178 2.8517168,2.8517168 0 0 1 -2.851804,2.8518 2.8517168,2.8517168 0 0 1 -2.85179,-2.8518 2.8517168,2.8517168 0 0 1 2.85179,-2.85178 z"
         id="path4607"
         inkscape:connector-curvature="0" />
    </g>
  </g>
</svg>
